<?xml version="1.0" encoding="utf-8"?>
<svg viewBox="0 0 202.184 235.816" xmlns="http://www.w3.org/2000/svg" xmlns:xlink="http://www.w3.org/1999/xlink">
  <defs/>
  <g transform="matrix(1, 0, 0, 1, -84.989076, -170.608081)">
    <svg xmlns="http://www.w3.org/2000/svg" viewBox="-0.006413816008716822 0.08900416642427444 101.9962387084961 119.91099548339844" height="227.19392737316576" width="193.25107939528013" y="173.90303631341712" x="89.99999999999999" preserveAspectRatio="xMinYMin" style="overflow: visible;">
      <linearGradient id="New_Gradient_Swatch_copy" x1="15.16" y1="-15.93" x2="56.13" y2="100.04" gradientUnits="userSpaceOnUse" style="">
        <stop offset="0" stop-color="#fd5668"/>
        <stop offset="0.44" stop-color="#a73ca0"/>
        <stop offset="0.82" stop-color="#6327cd"/>
        <stop offset="0.99" stop-color="#481fde"/>
      </linearGradient>
      <linearGradient id="New_Gradient_Swatch_copy-2" x1="17.17" y1="-16.64" x2="58.14" y2="99.33" style="" xlink:href="#New_Gradient_Swatch_copy"/>
      <linearGradient id="New_Gradient_Swatch_copy-3" x1="19.04" y1="-17.3" x2="60.01" y2="98.67" style="" xlink:href="#New_Gradient_Swatch_copy"/>
      <linearGradient id="New_Gradient_Swatch_copy-4" x1="15.46" y1="-16.04" x2="56.43" y2="99.94" style="" xlink:href="#New_Gradient_Swatch_copy"/>
      <linearGradient id="New_Gradient_Swatch_copy-5" x1="12.46" y1="-14.97" x2="53.43" y2="101" style="" xlink:href="#New_Gradient_Swatch_copy"/>
      <linearGradient id="New_Gradient_Swatch_copy-6" x1="27.55" y1="-20.31" x2="68.52" y2="95.67" style="" xlink:href="#New_Gradient_Swatch_copy"/>
      <linearGradient id="New_Gradient_Swatch_copy-7" x1="29.82" y1="-21.11" x2="70.79" y2="94.86" style="" xlink:href="#New_Gradient_Swatch_copy"/>
      <path id="Layer_1-2" dataname="Layer 1" class="cls-1" d="M3.63,64.48a3.63,3.63,0,0,1-2.57-6.2L58.19,1.15a3.63,3.63,0,0,1,5.13,5.14L6.2,63.42A3.66,3.66,0,0,1,3.63,64.48Z" style="fill: url(#New_Gradient_Swatch_copy);"/>
      <path id="Layer_1-2" dataname="Layer 1" class="cls-2" d="M16.62,31.7a3.57,3.57,0,0,1-2.49-1A3.62,3.62,0,0,1,14,25.59L20.21,19l17.9-17.9A3.63,3.63,0,0,1,43.24,6.2L25.38,24.06l-6.12,6.5A3.62,3.62,0,0,1,16.62,31.7Z" style="fill: url(#New_Gradient_Swatch_copy-2);"/>
      <path id="Layer_1-2" dataname="Layer 1" class="cls-3" d="M3.63,84.65a3.63,3.63,0,0,1-2.57-6.2L75.17,4.35A3.63,3.63,0,0,1,80.3,9.48L6.2,83.59A3.62,3.62,0,0,1,3.63,84.65Z" style="fill: url(#New_Gradient_Swatch_copy-3);"/>
      <path id="Layer_1-2" dataname="Layer 1" class="cls-4" d="M22,86.48a3.63,3.63,0,0,1-2.56-6.19l42-42a3.63,3.63,0,0,1,5.13,5.13l-42,42A3.62,3.62,0,0,1,22,86.48Z" style="fill: url(#New_Gradient_Swatch_copy-4);"/>
      <path id="Layer_1-2" dataname="Layer 1" class="cls-5" d="M10.12,118.5a3.63,3.63,0,0,1-2.56-6.2L78.8,41.06a3.63,3.63,0,1,1,5.13,5.13L12.69,117.44A3.66,3.66,0,0,1,10.12,118.5Z" style="fill: url(#New_Gradient_Swatch_copy-5);"/>
      <path id="Layer_1-2" dataname="Layer 1" class="cls-6" d="M28.84,120a3.63,3.63,0,0,1-2.56-6.2L95.81,44.61a3.62,3.62,0,1,1,5.11,5.14L31.4,118.9A3.63,3.63,0,0,1,28.84,120Z" style="fill: url(#New_Gradient_Swatch_copy-6);"/>
      <path id="Layer_1-2" dataname="Layer 1" class="cls-7" d="M56.42,112.54a3.63,3.63,0,0,1-2.56-6.19L82.43,77.77a3.63,3.63,0,0,1,5.13,5.14L59,111.48A3.62,3.62,0,0,1,56.42,112.54Z" style="fill: url(#New_Gradient_Swatch_copy-7);"/>
    </svg>
  </g>
  <g transform="matrix(1, 0, 0, 1, -19.738108, 19.353298)">
    <svg y="250.54040342559813" viewBox="4.789999961853027 31.110000610351562 178.28001403808594 89.73999786376953" x="306.7174126792346" height="89.73999786376953" width="178.28001403808594" xmlns="http://www.w3.org/2000/svg" style="overflow: visible;">
      <g fill="#ffffff" fill-opacity="1" style=""/>
    </svg>
  </g>
</svg>