<svg width="100%" height="100%" viewBox="0 0 515 515" version="1.1" xmlns="http://www.w3.org/2000/svg" xmlns:xlink="http://www.w3.org/1999/xlink" xml:space="preserve" xmlns:serif="http://www.serif.com/" style="fill-rule:evenodd;clip-rule:evenodd;stroke-linecap:round;stroke-linejoin:round;stroke-miterlimit:1.5;">
    <g transform="matrix(1,0,0,1,-1443.53,-951.75)">
        <g transform="matrix(0.912849,0,0,0.921607,-354.709,234.399)">
            <path d="M1999.92,1619.4C2021.53,1619.4 2039.96,1611.79 2055.19,1596.55C2070.43,1581.32 2078.04,1562.89 2078.04,1541.28C2078.04,1519.66 2070.43,1501.24 2055.19,1486.01C2039.96,1470.77 2021.53,1463.15 1999.92,1463.15C1978.3,1463.15 1959.88,1470.77 1944.65,1486.01C1929.41,1501.24 1921.79,1519.66 1921.79,1541.28C1921.79,1562.89 1929.41,1581.32 1944.65,1596.55C1959.88,1611.79 1978.3,1619.4 1999.92,1619.4ZM1921.79,1464.72C1922.05,1464.46 1922.32,1464.2 1922.58,1463.94C1943.93,1442.58 1969.71,1431.9 1999.92,1431.9C2030.13,1431.9 2055.91,1442.58 2077.26,1463.94C2098.62,1485.29 2109.29,1511.07 2109.29,1541.28C2109.29,1571.49 2098.62,1597.27 2077.26,1618.62C2055.91,1639.98 2030.13,1650.65 1999.92,1650.65C1969.71,1650.65 1943.93,1639.98 1922.58,1618.62C1901.22,1597.27 1890.54,1571.49 1890.54,1541.28L1890.54,1353.39C1890.54,1349.09 1892.07,1345.41 1895.13,1342.35C1898.19,1339.29 1901.87,1337.76 1906.17,1337.76C1910.47,1337.76 1914.14,1339.29 1917.2,1342.35C1920.26,1345.41 1921.79,1349.09 1921.79,1353.39L1921.79,1464.72Z" style="fill:rgb(77,115,233);fill-rule:nonzero;"/>
        </g>
        <g transform="matrix(1,0,0,1,868.028,-1.74468)">
            <path d="M874.179,972.229L669.353,1213.93C669.353,1213.93 651.421,1234.12 664.484,1254.5C675.22,1271.26 700.482,1270.04 700.482,1270.04L818.271,1270.87L797.875,1348.66" style="fill:none;stroke:rgb(77,115,233);stroke-width:27.08px;"/>
        </g>
        <g transform="matrix(-1,0,0,-1,2538.24,2420.79)">
            <path d="M874.29,972.438L669.353,1213.93C669.353,1213.93 651.421,1234.12 664.484,1254.5C675.22,1271.26 700.482,1270.04 700.482,1270.04L818.271,1270.87L796.578,1353.61" style="fill:none;stroke:rgb(255,225,28);stroke-width:27.08px;"/>
        </g>
        <g transform="matrix(0.974475,0,0,0.974475,833.736,-19.2432)">
            <path d="M802.124,1499.86C798.276,1504.4 791.933,1505.92 786.444,1503.62C692.026,1463.33 625.766,1369.61 625.766,1260.54C625.766,1114.77 744.111,996.427 889.878,996.427C913.884,996.427 937.147,999.637 959.26,1005.65L939.145,1029.37C923.252,1026 906.771,1024.22 889.878,1024.22C759.45,1024.22 653.559,1130.11 653.559,1260.54C653.559,1358.28 713.026,1442.24 797.723,1478.19C801.638,1479.85 804.528,1483.28 805.508,1487.42C806.489,1491.56 805.443,1495.92 802.691,1499.17C802.507,1499.41 802.315,1499.63 802.124,1499.86Z" style="fill:rgb(77,115,233);"/>
        </g>
        <g transform="matrix(0.974475,0,0,0.974475,833.736,-19.2432)">
            <path d="M845.121,1492.62C859.615,1495.4 874.577,1496.86 889.878,1496.86C1020.31,1496.86 1126.2,1390.97 1126.2,1260.54C1126.2,1162.44 1066.29,1078.22 981.095,1042.5C975.689,1040.24 972.284,1034.83 972.586,1028.98C972.889,1023.13 976.834,1018.1 982.444,1016.41C983.46,1016.1 984.553,1015.83 985.725,1015.61C987.098,1015.36 988.518,1015.5 989.812,1016.03C1086.1,1055.45 1153.99,1150.13 1153.99,1260.54C1153.99,1406.31 1035.64,1524.65 889.878,1524.65C867.43,1524.65 845.632,1521.84 824.817,1516.56L845.121,1492.62Z" style="fill:rgb(255,225,28);"/>
        </g>
    </g>
</svg>